{"asset":{"version":"2.0","generator":"babylon.js glTF exporter for 3dsmax 2017 v20201207.3"},"scene":0,"scenes":[{"nodes":[0,1]}],"nodes":[{"mesh":0,"name":"environ_cyl"},{"name":"Default light"}],"meshes":[{"primitives":[{"attributes":{"POSITION":1,"NORMAL":2,"TEXCOORD_0":3},"indices":0,"material":0}],"name":"environ_cyl"}],"accessors":[{"bufferView":0,"componentType":5123,"count":26787,"type":"SCALAR","name":"accessorIndices"},{"bufferView":1,"componentType":5126,"count":26787,"max":[0.0889239,0.024025701,0.08873881],"min":[-0.0891356,-0.00424290029,-0.0887680054],"type":"VEC3","name":"accessorPositions"},{"bufferView":1,"byteOffset":321444,"componentType":5126,"count":26787,"type":"VEC3","name":"accessorNormals"},{"bufferView":2,"componentType":5126,"count":26787,"type":"VEC2","name":"accessorUVs"}],"bufferViews":[{"buffer":0,"byteLength":53576,"name":"bufferViewScalar"},{"buffer":0,"byteOffset":53576,"byteLength":642888,"byteStride":12,"name":"bufferViewFloatVec3"},{"buffer":0,"byteOffset":696464,"byteLength":214296,"byteStride":8,"name":"bufferViewFloatVec2"}],"buffers":[{"uri":"environ-cyl.bin","byteLength":910760}],"materials":[{"pbrMetallicRoughness":{"baseColorFactor":[0.588,0.588,0.588,1.0],"metallicFactor":0.0,"roughnessFactor":0.450053632},"name":"environ_cyl_mtl"}]}